<svg width="19" height="17" viewBox="0 0 19 17" fill="none" xmlns="http://www.w3.org/2000/svg">
<path d="M6.51261 8.99102L5.14867 9.4819L5.12741 9.48892C4.79085 9.0927 4.50744 8.65441 4.28779 8.18457C4.01146 7.61304 3.82015 6.99242 3.70678 6.3683C3.26749 3.94193 3.87329 1.12636 6.49136 0.246271C8.91457 -0.511093 11.4689 0.498727 12.2376 2.99522C12.8895 5.10252 12.3829 7.89004 10.9127 9.56605L10.8737 9.61164L10.8241 9.58359C10.5265 9.41528 10.197 9.21893 9.89944 9.04712L9.59123 8.86479L9.60894 8.83324L9.93133 8.98751C10.2395 9.13478 10.5832 9.30659 10.8914 9.45736L10.8028 9.47489C11.7487 8.24067 12.1739 6.63828 12.181 5.10252C12.181 4.18737 12.0322 3.25118 11.6212 2.42369C11.1925 1.55062 10.4238 0.849357 9.49558 0.526776C8.10683 0.0499176 6.42404 0.22874 5.27975 1.18596C3.63239 2.55343 3.49422 5.1481 4.00083 7.08008C4.19568 7.80589 4.5039 8.50715 4.93965 9.12426C5.0105 9.22945 5.09199 9.32412 5.16638 9.4258L5.13095 9.41528L6.50553 8.95245L6.51616 8.98401L6.51261 8.99102Z" fill="#9678B6"/>
<path d="M5.14804 7.24513C5.0964 6.628 5.32016 6.01791 5.64031 5.51009C6.04652 4.86474 6.6524 4.37456 7.27892 3.96901C7.86414 3.54935 8.44592 3.02038 8.68345 2.31508C8.76607 2.04706 8.80394 1.75436 8.71787 1.48635C8.69722 1.43345 8.72132 1.3735 8.7764 1.34881C8.81082 1.33471 8.84524 1.34176 8.87278 1.35939C8.99671 1.45108 9.10687 1.54277 9.21703 1.64151C10.2085 2.53019 11.0071 3.72921 11.1551 5.09749C11.2171 5.70758 11.1379 6.33177 10.9451 6.91012C10.5871 7.90106 10.0088 8.9167 9.04146 9.38572C8.32887 9.73837 7.5199 9.67137 6.85894 9.23408C6.60765 9.07186 6.4011 8.86027 6.18766 8.65221C5.98112 8.44415 5.77801 8.23255 5.59556 8.00333C5.41311 7.77058 5.23754 7.53078 5.14116 7.24513H5.14804ZM5.18247 7.23455C5.27885 7.50609 5.46131 7.7459 5.65064 7.96102C5.84342 8.17966 6.05341 8.38067 6.27028 8.56757C6.48716 8.75095 6.70748 8.94138 6.95533 9.07539C8.00873 9.65726 9.13441 9.21292 9.82979 8.28545C10.1258 7.89754 10.3668 7.44614 10.5561 6.99122C10.8006 6.40582 10.9176 5.76047 10.8694 5.1257C10.742 3.68336 9.84356 2.41029 8.75574 1.52866L8.91065 1.40524C9.01048 1.7191 8.96573 2.06822 8.86246 2.3715C8.59739 3.11912 7.98463 3.65515 7.35466 4.0748C6.85206 4.37808 6.33913 4.72368 5.95358 5.17507C5.46819 5.72873 5.11706 6.47635 5.18247 7.23455Z" fill="#9678B6"/>
<path d="M0.00963234 16.5264C-0.06392 15.1439 0.27232 13.737 1.41413 12.8491C2.18818 12.2327 3.16888 11.9959 4.07953 11.6581C4.69597 11.4387 5.61362 11.0278 6.23006 10.7806L6.16351 10.8746L6.22656 8.90014C6.22656 8.80264 6.35265 8.74692 6.4262 8.80961C7.06716 9.37722 7.93227 9.57919 8.72734 9.21355C8.97602 9.10212 9.20718 8.94542 9.41033 8.75737C9.50139 8.67031 9.66601 8.73648 9.66601 8.86184L9.76758 10.8711L9.659 10.7179C10.0198 10.8607 10.3805 11.0069 10.7378 11.1532C11.046 11.282 11.4978 11.4701 11.8095 11.578C12.5451 11.8496 13.3086 12.0516 13.9951 12.4486C14.7902 12.9048 15.3856 13.6187 15.6553 14.4962C15.7463 14.7748 15.8024 15.0708 15.8374 15.3598C15.8794 15.7498 15.8794 16.1398 15.8479 16.5264C15.8479 16.5368 15.8374 16.5438 15.8304 16.5403C15.8199 16.5403 15.8164 16.5333 15.8164 16.5229C15.8129 16.1363 15.7814 15.7533 15.7148 15.3772C15.5117 14.2176 14.9092 13.26 13.8515 12.7028C13.179 12.3441 12.4155 12.1631 11.6975 11.9054C11.3752 11.8044 10.9199 11.6094 10.6012 11.4805C10.2439 11.3343 9.88316 11.1845 9.52591 11.0348C9.46286 11.0104 9.42083 10.9477 9.41733 10.8816L9.35779 8.87229L9.61347 8.97676C9.15814 9.38767 8.56272 9.66277 7.93928 9.66625C7.31583 9.67321 6.72391 9.40508 6.26859 8.99417L6.47173 8.90711C6.47173 8.90711 6.37717 10.8781 6.37717 10.8816C6.37717 10.9234 6.34914 10.9582 6.31062 10.9756L5.22835 11.4074C4.91312 11.5328 4.4543 11.7208 4.13557 11.8253C3.50512 12.0516 2.54544 12.3023 1.96753 12.6332C1.71535 12.769 1.48068 12.9361 1.26703 13.1242C0.615563 13.6987 0.240797 14.524 0.114707 15.3737C0.0551647 15.7533 0.0341498 16.1398 0.0446573 16.5229C0.0446573 16.5333 0.0376523 16.5403 0.0271448 16.5403C0.0166373 16.5403 0.00963234 16.5333 0.00963234 16.5229V16.5264Z" fill="#9678B6"/>
<path d="M4.90083 11.2925L4.59229 13.5502L4.52858 13.4805L5.72246 13.299C5.76271 13.292 5.80295 13.3234 5.80966 13.3653C5.80966 13.3827 5.80966 13.3967 5.80295 13.4107L5.22277 14.7542L5.18253 14.6251L7.97945 16.2687L7.77823 16.4362C7.49988 15.5812 7.11086 14.3982 6.85599 13.5502C6.57428 12.5976 6.28923 11.5926 6.03435 10.6294L6.1685 10.6853C5.76606 10.8842 5.30997 11.097 4.90083 11.289V11.2925ZM4.874 11.2715C5.02156 11.1773 5.32003 10.9889 5.46759 10.8946C5.66881 10.769 5.87338 10.6434 6.0813 10.5178C6.1249 10.4933 6.17856 10.5073 6.20539 10.5526C6.29593 10.7969 6.37642 11.0447 6.46361 11.289C7.03038 12.9151 7.56696 14.6879 8.03982 16.3524C8.08006 16.4746 7.94591 16.5897 7.8386 16.5199L5.08192 14.803C5.03833 14.7786 5.02156 14.7193 5.04168 14.6739L5.65539 13.3478L5.73588 13.4595C5.73588 13.4595 4.53864 13.5991 4.53528 13.5991C4.49839 13.6026 4.46486 13.5677 4.47156 13.5293C4.56882 12.9675 4.76668 11.8333 4.86729 11.2715H4.874Z" fill="#9678B6"/>
<path d="M11.1949 11.2296L11.6228 13.5299C11.6299 13.5613 11.6085 13.5927 11.5729 13.5997C11.5657 13.5997 11.5586 13.5997 11.5515 13.5997L10.2784 13.4601L10.364 13.3484L11.0166 14.6748C11.038 14.7202 11.0237 14.776 10.9773 14.8004C10.9773 14.8004 8.04596 16.5178 8.04596 16.5213C7.93184 16.5876 7.7892 16.4759 7.83199 16.3537C8.33482 14.6853 8.9054 12.919 9.50808 11.289C9.59723 11.0481 9.68639 10.8073 9.77554 10.5664C9.79694 10.5141 9.86113 10.4896 9.91105 10.5175C10.1322 10.6362 10.3497 10.7549 10.5637 10.8771C10.7206 10.9678 11.0344 11.1424 11.1913 11.2331L11.1949 11.2296ZM11.1663 11.2506C10.7348 11.0725 10.2534 10.8736 9.82903 10.6886L9.96811 10.6327C9.90036 10.8771 9.82903 11.1214 9.76127 11.3657C9.40823 12.577 9.03022 13.8091 8.61654 14.9994L8.11728 16.441L7.90331 16.2735L10.8775 14.6294L10.8347 14.7586C10.8347 14.7586 10.2177 13.4147 10.2177 13.4112C10.1892 13.3554 10.2427 13.289 10.3033 13.2995L11.5729 13.481L11.5051 13.5508L11.1699 11.2506H11.1663Z" fill="#9678B6"/>
<path d="M18.3757 0.547844C16.9457 0.533853 15.4192 0.572329 13.9858 0.600312C13.9272 0.60381 13.7963 0.600311 13.7377 0.607307C13.5517 0.628294 13.3931 0.785698 13.3759 0.974582C13.3759 1.11799 13.3794 1.37334 13.3794 1.52375C13.3863 2.2583 13.3966 3.46506 13.4035 4.19611C13.4069 4.26607 13.3966 4.39549 13.4173 4.46195C13.4552 4.60886 13.593 4.71729 13.7412 4.72778C13.8066 4.73128 13.8549 4.79074 13.848 4.85371C13.848 4.8642 13.848 4.87469 13.8411 4.88519L13.2278 6.83699L13.0107 6.68309L15.3676 4.71379C15.3986 4.68931 15.4365 4.67532 15.4709 4.67532C16.4357 4.66832 17.4005 4.67532 18.3653 4.68931C18.4101 4.68931 18.448 4.68581 18.4894 4.67182C18.61 4.63334 18.703 4.51791 18.7168 4.39199C18.7203 4.34302 18.7237 4.2171 18.7271 4.15763C18.7513 3.48255 18.8133 1.87703 18.8271 1.22293C18.8271 1.15647 18.834 1.04454 18.8305 0.981578C18.8236 0.743724 18.61 0.544346 18.3757 0.544346V0.547844ZM18.3757 0.512865C18.6307 0.50587 18.8684 0.719239 18.8856 0.981578C18.8856 1.05503 18.8925 1.15647 18.8925 1.22643C18.9029 1.87003 18.9683 3.49304 18.9925 4.16113C18.9925 4.24158 19.0028 4.32903 18.9994 4.41647C18.9925 4.52141 18.958 4.62635 18.9029 4.71379C18.7892 4.89568 18.5824 5.00761 18.3722 5.00761C17.4074 5.0251 16.4461 5.0286 15.4813 5.0216L15.5881 4.98313C15.5881 4.98313 13.1899 6.89995 13.1864 6.89995C13.083 6.9839 12.928 6.87547 12.9728 6.74605L13.6206 4.80474L13.7239 4.96214C13.6033 4.94815 13.4862 4.89918 13.3931 4.82223C13.276 4.72429 13.2002 4.57738 13.1864 4.42347C13.183 4.36401 13.1864 4.24858 13.1864 4.18911C13.1864 4.00023 13.1967 2.91589 13.2002 2.70252C13.2002 2.48915 13.2105 1.40832 13.214 1.21593C13.214 1.14598 13.214 1.01656 13.2209 0.9466C13.2312 0.876642 13.2519 0.803188 13.2863 0.740226C13.3966 0.533853 13.6206 0.428916 13.8445 0.449903C13.9341 0.449903 14.1891 0.456899 14.2821 0.456899C15.6156 0.484882 17.0491 0.516363 18.3791 0.502371L18.3757 0.512865Z" fill="#9678B6"/>
<path d="M17.5471 2.09836C17.2478 2.10532 16.9554 2.11922 16.6665 2.12618C16.6456 2.12618 16.6282 2.10879 16.6282 2.08793L16.6073 1.20482L16.6665 1.26392L15.5561 1.28826L15.6397 1.20482L15.6571 2.08793C15.6571 2.14356 15.6118 2.18876 15.5561 2.18876L14.665 2.20615L14.7834 2.08793L14.8008 3.18661L14.665 3.05102C14.9609 3.03363 15.2603 3.0232 15.5561 3.01625C15.6501 3.01625 15.7267 3.09274 15.7267 3.18661C15.7336 3.48214 15.7371 3.7742 15.7371 4.06973L15.5561 3.88893C15.9251 3.88893 16.2975 3.88893 16.6665 3.89936L16.4959 4.06973C16.5029 3.80896 16.5098 3.4439 16.5238 3.18661C16.5238 3.10664 16.5864 3.04058 16.6665 3.04406C16.9589 3.05449 17.2652 3.0684 17.5575 3.08578L17.4566 3.18661C17.481 2.82154 17.5193 2.47038 17.5471 2.09836ZM17.568 2.07402C17.5958 2.40085 17.6411 2.86327 17.6585 3.18661C17.662 3.24572 17.6132 3.29092 17.5575 3.28744C17.4845 3.29092 17.4079 3.29439 17.3348 3.29787L17.112 3.3083C16.9623 3.31525 16.8161 3.32221 16.6665 3.32569L16.8092 3.18313C16.8231 3.44042 16.8266 3.80549 16.837 4.06625C16.837 4.16013 16.7605 4.23662 16.6665 4.23662C16.2975 4.24357 15.9251 4.24705 15.5561 4.24705C15.4552 4.24705 15.3751 4.16708 15.3751 4.06625C15.3751 3.77072 15.3751 3.47867 15.3856 3.18313L15.5561 3.3535C15.2568 3.34655 14.9609 3.33612 14.665 3.31873C14.5885 3.31873 14.5293 3.25962 14.5293 3.18313C14.5293 3.17966 14.5467 2.08446 14.5467 2.08098C14.5467 2.0184 14.5989 1.96624 14.665 1.96624L15.5561 1.98363L15.4552 2.08446L15.4726 1.20134C15.4726 1.15266 15.5109 1.11442 15.5561 1.1179C15.5561 1.1179 16.6665 1.14223 16.67 1.14223C16.7013 1.14223 16.7291 1.17005 16.7257 1.20134L16.7048 2.08446L16.6665 2.04621C16.9728 2.05316 17.2756 2.06707 17.5715 2.07402H17.568Z" fill="#9678B6"/>
<path d="M4.32685 16.0101C3.62652 16.0338 2.61935 16.0776 1.92985 16.0945C1.87209 16.0945 1.82516 16.0506 1.82877 16C1.81794 15.6189 1.79628 15.0826 1.78906 14.7048C1.78906 14.6306 1.85404 14.5733 1.92985 14.5733C2.1284 14.5564 2.32694 14.5463 2.52549 14.5395C3.12113 14.5193 3.71677 14.5328 4.31602 14.5598C4.40266 14.5598 4.47486 14.6205 4.47125 14.7048C4.44959 15.15 4.39183 15.5784 4.33046 16.0101H4.32685ZM4.30158 15.9865C4.25465 15.6223 4.18246 15.059 4.1608 14.7048L4.31602 14.8498C3.52184 14.8869 2.72404 14.9038 1.92985 14.8364L2.07064 14.7048C2.05981 15.0792 2.04537 15.6189 2.03093 16L1.92985 15.9056C2.12118 15.9123 2.31611 15.9157 2.51105 15.9224C3.04171 15.9427 3.77092 15.9697 4.30519 15.9899L4.30158 15.9865Z" fill="#9678B6"/>
<path d="M3.15168 14.0969C3.21738 14.2411 3.26556 14.3853 3.3006 14.5326C3.31812 14.6047 3.37506 14.6768 3.3444 14.752C3.31374 14.8367 3.2568 14.9056 3.15168 14.9714C3.13854 14.9777 3.12102 14.9777 3.10788 14.9714C3.00276 14.9087 2.94582 14.8398 2.91516 14.752C2.8845 14.6768 2.94144 14.6047 2.95896 14.5326C2.97648 14.4605 2.99838 14.3884 3.02466 14.3132C3.05094 14.2411 3.07722 14.169 3.11226 14.0938C3.11664 14.0781 3.1473 14.0781 3.15606 14.0938L3.15168 14.0969Z" fill="#9678B6"/>
</svg>
