<?xml version="1.0" encoding="UTF-8"?>
<svg id="Layer_2" data-name="Layer 2" xmlns="http://www.w3.org/2000/svg" viewBox="0 0 156.57 171.45">
  <defs>
    <style>
      .cls-1 {
        fill: #50af35;
      }

      .cls-2 {
        fill: #fff;
      }

      .cls-3 {
        fill: #6bc14f;
      }
    </style>
  </defs>
  <g id="Layer_1-2" data-name="Layer 1">
    <g>
      <path class="cls-1" d="M156.57,33.42v21.49c0,23.16-4.04,43.7-12.01,61.03-6.42,13.96-15.38,25.88-26.63,35.41-10.01,8.49-20.02,13.47-26.66,16.16-7.26,2.94-12.16,3.86-12.37,3.9-.21.04-.42.06-.63.06s-.42-.02-.63-.06c-.21-.04-5.11-.96-12.37-3.9-6.64-2.69-16.65-7.67-26.66-16.16-11.25-9.53-20.21-21.45-26.63-35.41C4.04,98.6,0,78.07,0,54.9v-21.49c0-1.69,1.21-3.13,2.87-3.43,9.73-1.73,19.64-4.34,29.45-7.77,7.87-2.75,15.68-6.02,23.24-9.73C68.45,6.17,76.19.7,76.27.64c1.21-.86,2.83-.86,4.03,0,.08.05,7.82,5.52,20.71,11.85,7.55,3.71,15.37,6.98,23.24,9.73,9.81,3.43,19.72,6.04,29.45,7.77,1.66.3,2.87,1.74,2.87,3.43Z"/>
      <circle class="cls-3" cx="78.29" cy="88.43" r="49.8"/>
      <path class="cls-2" d="M73.02,111.13c-1.45,0-2.9-.55-4-1.66l-15.46-15.46c-2.21-2.21-2.21-5.79,0-8,2.21-2.21,5.79-2.21,8,0l11.46,11.46,21.98-21.98c2.21-2.21,5.79-2.21,8,0,2.21,2.21,2.21,5.79,0,8l-25.98,25.98c-1.11,1.11-2.55,1.66-4,1.66Z"/>
    </g>
  </g>
</svg>